<?xml version="1.0" standalone="no"?>
<!DOCTYPE svg PUBLIC "-//W3C//DTD SVG 20010904//EN"
 "http://www.w3.org/TR/2001/REC-SVG-20010904/DTD/svg10.dtd">
<svg version="1.0" xmlns="http://www.w3.org/2000/svg"
 width="314.000000pt" height="314.000000pt" viewBox="0 0 314.000000 314.000000"
 preserveAspectRatio="xMidYMid meet">
<metadata>
Created by potrace 1.11, written by Peter Selinger 2001-2013
</metadata>
<g transform="translate(0.000000,314.000000) scale(0.100000,-0.100000)"
fill="#000000" stroke="none">
<path d="M2005 2855 c-187 -69 -359 -132 -382 -141 l-43 -16 0 -118 c0 -104
-2 -121 -17 -128 -10 -5 -174 -66 -364 -136 -258 -94 -357 -126 -392 -126
l-47 0 0 -40 c0 -33 3 -40 20 -40 20 0 20 -7 20 -967 0 -533 4 -963 8 -958 4
6 18 11 32 13 41 5 90 23 90 33 0 5 10 9 23 9 13 0 31 6 40 13 15 11 17 71 21
707 2 382 6 706 8 720 8 40 36 100 47 100 8 0 11 -232 11 -750 0 -412 2 -750
4 -750 3 0 43 14 90 31 l85 31 3 661 c4 742 0 706 78 826 47 73 51 72 102 -18
17 -31 34 -58 37 -61 3 -3 7 -18 9 -35 2 -16 7 -31 12 -33 4 -2 9 -281 10
-620 0 -339 2 -617 3 -619 2 -1 15 4 30 12 15 8 27 12 27 10 0 -2 21 5 48 15
l47 18 5 633 c3 349 9 644 14 656 7 20 33 33 66 33 8 0 23 -14 33 -31 16 -29
18 -74 17 -635 0 -332 4 -604 8 -604 5 0 12 3 16 7 3 4 13 8 21 9 35 5 91 28
102 41 6 8 19 13 29 11 9 -2 19 3 22 11 3 10 0 11 -9 5 -11 -6 -12 -5 -2 7 9
11 12 141 13 514 2 476 3 501 22 538 10 21 17 45 14 52 -3 8 0 12 7 9 14 -5
38 40 28 53 -3 4 -2 5 4 0 5 -4 31 15 57 44 27 29 48 49 48 45 0 -5 15 3 33
16 17 14 57 35 88 47 l56 23 2 59 2 59 -436 0 -435 0 0 44 c0 25 5 48 11 51 5
4 202 6 437 6 286 -1 422 2 412 9 -10 6 -11 10 -2 10 9 0 12 30 12 115 l0 115
-277 0 c-183 0 -273 -4 -263 -10 8 -5 10 -10 5 -10 -29 0 -35 27 -35 147 l0
123 290 0 290 0 0 140 c0 106 -3 140 -12 140 -7 -1 -166 -57 -353 -125z m-780
-863 c-3 -3 -11 0 -18 7 -9 10 -8 11 6 5 10 -3 15 -9 12 -12z m123 -17 c-3 -3
-9 2 -12 12 -6 14 -5 15 5 6 7 -7 10 -15 7 -18z m-218 -89 c0 -3 -4 -8 -10
-11 -5 -3 -10 -1 -10 4 0 6 5 11 10 11 6 0 10 -2 10 -4z m323 -51 c-3 -9 -8
-14 -10 -11 -3 3 -2 9 2 15 9 16 15 13 8 -4z m97 -1349 c0 -2 -7 -7 -16 -10
-8 -3 -12 -2 -9 4 6 10 25 14 25 6z"/>
<path d="M1860 2575 l0 -65 251 0 250 0 -2 65 -2 65 -249 0 -248 0 0 -65z"/>
</g>
</svg>
